<?xml version="1.0" encoding="UTF-8" standalone="no"?>
<svg width="350px" height="350px" viewBox="0 0 350 350" version="1.1" xmlns="http://www.w3.org/2000/svg" xmlns:xlink="http://www.w3.org/1999/xlink" xmlns:sketch="http://www.bohemiancoding.com/sketch/ns">
    <!-- Generator: Sketch 3.3.3 (12072) - http://www.bohemiancoding.com/sketch -->
    <title>avatar</title>
    <desc>Created with Sketch.</desc>
    <defs></defs>
    <g id="Page-1" stroke="none" stroke-width="1" fill="none" fill-rule="evenodd" sketch:type="MSPage">
        <g id="avatar" sketch:type="MSArtboardGroup" fill="#000000">
            <path d="M170.214179,38.1262757 C171.800167,38.0424035 173.395715,38 175,38 C230.78076,38 276,89.2633961 276,152.5 C276,169.17847 272.854435,185.024054 267.199168,199.315897 L267.199168,199.315897 L258.58911,156.839609 C257.711469,152.509913 253.742535,147.512273 249.652302,145.831085 C249.652302,145.831085 223.556315,132.152344 173.999807,132.152344 C124.4433,132.152344 98.3224252,145.840972 98.3224252,145.840972 C94.2783614,147.585655 90.2880125,152.512471 89.41089,156.839609 L81.4984871,195.87413 C76.6647608,182.496376 74,167.850977 74,152.5 C74,92.6153371 114.552479,43.4682109 166.223983,38.4262485 C165.248761,35.061839 162.822228,34.325822 157.344654,34.8766812 C156.245628,34.9872062 155.265094,34.1858678 155.154569,33.0868419 C155.044044,31.987816 155.845382,31.0072812 156.944408,30.8967563 C165.054432,30.0811613 168.870926,32.2383607 170.214179,38.1262757 Z M185.015824,199 L164.984176,199 L164.984176,199 C164.994699,199.332042 165,199.665402 165,200 C165,217.120827 151.120827,231 134,231 C116.879173,231 103,217.120827 103,200 C103,199.665402 103.005301,199.332042 103.015824,199 L96.0094776,199 C94.3366311,199 93,197.656109 93,195.998335 L93,194.001665 C93,192.33902 94.347389,191 96.0094776,191 L104.326642,191 C108.183096,178.268302 120.009184,169 134,169 C147.990816,169 159.816904,178.268302 163.673358,191 L186,191 L186,192.159789 C189.472605,178.835075 201.58775,169 216,169 C229.990816,169 241.816904,178.268302 245.673358,191 L254.990522,191 C256.663369,191 258,192.343891 258,194.001665 L258,195.998335 C258,197.66098 256.652611,199 254.990522,199 L246.984176,199 C246.994699,199.332042 247,199.665402 247,200 C247,217.120827 233.120827,231 216,231 C198.879173,231 185,217.120827 185,200 C185,199.665402 185.005301,199.332042 185.015824,199 L185.015824,199 L185.015824,199 Z M111,200 C111,187.297451 121.297451,177 134,177 C146.702549,177 157,187.297451 157,200 C157,212.702549 146.702549,223 134,223 C121.297451,223 111,212.702549 111,200 L111,200 L111,200 Z M193,200 C193,187.297451 203.297451,177 216,177 C228.702549,177 239,187.297451 239,200 C239,212.702549 228.702549,223 216,223 C203.297451,223 193,212.702549 193,200 L193,200 Z M147.996428,286 C145.789262,286 144,287.795356 144,290 C144,292.209139 145.788675,294 147.996428,294 L202.003572,294 C204.210738,294 206,292.204644 206,290 C206,287.790861 204.211325,286 202.003572,286 L147.996428,286 L147.996428,286 Z" id="Oval-1" sketch:type="MSShapeGroup"></path>
        </g>
    </g>
</svg>