<?xml version="1.0" encoding="UTF-8" standalone="no"?>
<svg width="350px" height="350px" viewBox="0 0 350 350" version="1.1" xmlns="http://www.w3.org/2000/svg" xmlns:xlink="http://www.w3.org/1999/xlink" xmlns:sketch="http://www.bohemiancoding.com/sketch/ns">
    <!-- Generator: Sketch 3.3.3 (12072) - http://www.bohemiancoding.com/sketch -->
    <title>Artboard 3</title>
    <desc>Created with Sketch.</desc>
    <defs></defs>
    <g id="Page-1" stroke="none" stroke-width="1" fill="none" fill-rule="evenodd" sketch:type="MSPage">
        <g id="Artboard-3" sketch:type="MSArtboardGroup">
            <path d="M267.199168,199.315897 C272.854435,185.024054 276,169.17847 276,152.5 C276,89.2633961 230.78076,38 175,38 C119.21924,38 74,89.2633961 74,152.5 C74,167.850977 76.6647608,182.496376 81.4984871,195.87413 L89.41089,156.839609 C90.2880125,152.512471 94.2783614,147.585655 98.3224252,145.840972 C98.3224252,145.840972 124.4433,132.152344 173.999807,132.152344 C223.556315,132.152344 249.652302,145.831085 249.652302,145.831085 C253.742535,147.512273 257.711469,152.509913 258.58911,156.839609 L267.199168,199.315897 Z" id="Oval-1" fill="#000000" sketch:type="MSShapeGroup"></path>
            <path d="M185.015824,199 L164.984176,199 L164.984176,199 C164.994699,199.332042 165,199.665402 165,200 C165,217.120827 151.120827,231 134,231 C116.879173,231 103,217.120827 103,200 C103,199.665402 103.005301,199.332042 103.015824,199 L96.0094776,199 C94.3366311,199 93,197.656109 93,195.998335 L93,194.001665 C93,192.33902 94.347389,191 96.0094776,191 L104.326642,191 C108.183096,178.268302 120.009184,169 134,169 C147.990816,169 159.816904,178.268302 163.673358,191 L186,191 L186,192.159789 C189.472605,178.835075 201.58775,169 216,169 C229.990816,169 241.816904,178.268302 245.673358,191 L254.990522,191 C256.663369,191 258,192.343891 258,194.001665 L258,195.998335 C258,197.66098 256.652611,199 254.990522,199 L246.984176,199 C246.994699,199.332042 247,199.665402 247,200 C247,217.120827 233.120827,231 216,231 C198.879173,231 185,217.120827 185,200 C185,199.665402 185.005301,199.332042 185.015824,199 L185.015824,199 Z M111,200 C111,187.297451 121.297451,177 134,177 C146.702549,177 157,187.297451 157,200 C157,212.702549 146.702549,223 134,223 C121.297451,223 111,212.702549 111,200 Z M193,200 C193,187.297451 203.297451,177 216,177 C228.702549,177 239,187.297451 239,200 C239,212.702549 228.702549,223 216,223 C203.297451,223 193,212.702549 193,200 Z" id="Rectangle-2" fill="#000000" sketch:type="MSShapeGroup"></path>
            <rect id="Rectangle-5" fill="#000000" sketch:type="MSShapeGroup" x="144" y="286" width="62" height="8" rx="33"></rect>
            <path d="M157.144531,32.8867188 C167.369441,31.8584375 168.804688,36.1920434 168.804688,44.6015625" id="Path-5" stroke="#000000" stroke-width="4" stroke-linecap="round" stroke-linejoin="round" sketch:type="MSShapeGroup"></path>
        </g>
    </g>
</svg>